<?xml version="1.0" encoding="utf-8"?>
<!-- Generator: Adobe Illustrator 23.0.1, SVG Export Plug-In . SVG Version: 6.00 Build 0)  -->
<svg version="1.1" id="Layer_1" xmlns="http://www.w3.org/2000/svg" xmlns:xlink="http://www.w3.org/1999/xlink" x="0px" y="0px"
	 viewBox="0 0 1280 1024" style="enable-background:new 0 0 1280 1024;" xml:space="preserve">
<style type="text/css">
	.st0{fill:none;stroke:#000000;stroke-width:4;stroke-miterlimit:10;}
</style>
<line class="st0" x1="27.81" y1="164.53" x2="146.33" y2="164.53"/>
<path class="st0" d="M146.33,164.53"/>
<path class="st0" d="M146.33,164.53c1.3-69.22,204.51-134.64,234.57-125.75"/>
<path class="st0" d="M146.33,164.53c0,23.2,22.09,41.98,49.38,41.98"/>
<path class="st0" d="M195.72,206.51c0,36.17,51.9,65.43,116.05,65.43"/>
<path class="st0" d="M311.77,271.94c0,18.42,48.04,33.33,107.41,33.33"/>
<path class="st0" d="M419.17,305.27c0,12.97,18.22,23.46,40.74,23.46"/>
<path class="st0" d="M419.17,305.27c0-18.42,18.22-33.33,40.74-33.33"/>
<path class="st0" d="M311.77,271.94c0-47.77,39.2-86.42,87.65-86.42"/>
<path class="st0" d="M399.42,185.52c0-32.41,17.95-58.64,40.12-58.64"/>
<path class="st0" d="M399.42,185.52c0,11.6,23.74,20.99,53.09,20.99"/>
<path class="st0" d="M409.08,147.35c0,9.5,13.62,17.18,30.46,17.18"/>
<path class="st0" d="M195.72,206.51c0-70.97,80.62-128.4,180.25-128.4"/>
<line class="st0" x1="370.42" y1="38.85" x2="718.56" y2="36.47"/>
<line class="st0" x1="375.96" y1="78.11" x2="727.81" y2="73.17"/>
<line class="st0" x1="439.54" y1="126.88" x2="722.88" y2="126.88"/>
<line class="st0" x1="439.54" y1="164.53" x2="722.88" y2="164.53"/>
<line class="st0" x1="452.51" y1="206.51" x2="722.88" y2="206.51"/>
<line class="st0" x1="459.91" y1="271.94" x2="722.88" y2="271.94"/>
<line class="st0" x1="459.91" y1="328.73" x2="722.88" y2="328.73"/>
</svg>
